<mxfile host="app.diagrams.net" modified="2023-04-01T12:10:32.347Z" agent="Mozilla/5.0 (Macintosh; Intel Mac OS X 10_15_7) AppleWebKit/537.36 (KHTML, like Gecko) Chrome/111.0.0.0 Safari/537.36" version="21.1.2" etag="RmnYfP0UCcO16Z19S1DZ" type="github">
  <diagram name="페이지-1" id="T4Wuuig0YvPSh3bQj3FD">
    <mxGraphModel>
      <root>
        <mxCell id="0" />
        <mxCell id="1" parent="0" />
      </root>
    </mxGraphModel>
  </diagram>
</mxfile>
